<svg class="owl-logo" width="424" height="588" viewBox="-32 -32 488 652" fill="none" xmlns="http://www.w3.org/2000/svg">
<style>
  .owl-body {
    animation: float 3s ease-in-out infinite;
    transform-origin: center;
    transform-box: fill-box;
  }
  .owl-eyebrow-left {
    animation: leftEyebrowMove 3s ease-in-out infinite;
    transform-origin: center;
    transform-box: fill-box;
  }
  .owl-eyebrow-right {
    animation: rightEyebrowMove 3s ease-in-out infinite;
    transform-origin: center;
    transform-box: fill-box;
  }
  @keyframes float {
    0%, 100% { transform: translateY(0); }
    50% { transform: translateY(-10px); }
  }
  @keyframes leftEyebrowMove {
    0%, 100% { transform: rotate(0deg) translateY(0); }
    50% { transform: rotate(-4deg) translateY(-2px) translateX(-2px); }
  }
  @keyframes rightEyebrowMove {
    0%, 100% { transform: rotate(0deg) translateY(0); }
    50% { transform: rotate(4deg) translateY(-2px) translateX(2px); }
  }
  <!-- alarm -->
  .alarm {
    transform: scale(1.75);
    transform-origin: center;
    transform-box: fill-box;
  }
  .outer-alarm {
    animation: outerAlarmPulse 4s ease-in-out infinite;
  }
  .inner-alarm {
    animation: innerAlarmPulse 4s ease-in-out infinite;
  }
  @keyframes outerAlarmPulse {
    0%, 100% { fill: #C04A4A; }
    50% { fill: #FF6B6B; }
  }
  @keyframes innerAlarmPulse {
    0%, 100% { fill: #DF7272; }
    50% { fill: #FF9999; }
  }

  <!-- legs -->
  .left-limb {
    animation: leftLimbSway 3s ease-in-out infinite;
    transform-origin: top;
    transform-box: fill-box;
  }
  .right-limb {
    animation: rightLimbSway 3s ease-in-out infinite;
    transform-origin: top;
    transform-box: fill-box;
  }
  @keyframes leftLimbSway {
    0%, 100% { transform: rotate(0deg) translateX(0); }
    50% { transform: rotate(-5deg) translateX(-10px); }
  }
  @keyframes rightLimbSway {
    0%, 100% { transform: rotate(0deg) translateX(0); }
    50% { transform: rotate(5deg) translateX(10px); }
  }
</style>

<!-- feet -->
<g class="owl-legs">
<g class="left-limb">
<rect class="owl-left-leg" x="165.935" y="520" width="25.0649" height="62.7766" transform="rotate(-174.164 165.935 520)" fill="#D896FF"/>
<path class="owl-left-foot" d="M66 530L136 512L167 520L187 586L143 556L75 566L112 542L66 530Z" fill="#FDD34A" stroke="#8B857C"/>
</g>
<g class="right-limb">
<rect class="owl-right-leg" x="293" y="513" width="28.0176" height="62.5626" transform="rotate(169.449 293 513)" fill="#D896FF"/>
<path class="owl-right-foot" d="M369 524C378 518 299 506 299 506L268 514L248 580C248 580 277 553 292 550C307 547 360 560 360 560C360 560 343 541 323 536C303 531 360 530 369 524Z" fill="#FDD34A" stroke="#8B857C"/>
</g>
</g>
<!-- body -->
<g class="owl-body">
<ellipse cx="210" cy="270.704" rx="207.393" ry="202.054" transform="rotate(-0.457665 210 270.704)" fill="#D896FF"/>
<!-- eye sockets -->
<ellipse class="owl-eyesocket-left" cx="116" cy="252.5" rx="106" ry="97.5" fill="#EFBBFF"/>
<ellipse class="owl-eyesocket-right" cx="306" cy="257.5" rx="106" ry="97.5" fill="#EFBBFF"/>
<!-- outer eye pupils -->
<ellipse cx="283.5" cy="259.5" rx="53.5" ry="65.5" fill="#D9D9D9"/>
<path d="M184 259.5C184 295.675 160.047 325 130.5 325C100.953 325 77 295.675 77 259.5C77 223.325 100.953 194 130.5 194C160.047 194 184 223.325 184 259.5Z" fill="#D9D9D9"/>
<!-- inner eye pupils -->
<path class="owl-pupil-left" d="M319 271.5C319 293.868 303.106 312 283.5 312C263.894 312 248 293.868 248 271.5C248 249.132 263.894 231 283.5 231C303.106 231 319 249.132 319 271.5Z" fill="#3F3D3D"/>
<path class="owl-pupil-right" d="M166 271.5C166 293.868 150.106 312 130.5 312C110.894 312 95 293.868 95 271.5C95 249.132 110.894 231 130.5 231C150.106 231 166 249.132 166 271.5Z" fill="#3F3D3D"/>
<!-- eye reflections -->
<ellipse class="owl-pupil-right" cx="123" cy="259.5" rx="7" ry="7.5" fill="#D9D9D9"/>
<ellipse class="owl-pupil-right" cx="277" cy="259.5" rx="7" ry="7.5" fill="#D9D9D9"/>
<!-- eyebrows -->
<path class="owl-eyebrow-right" d="M282 157C241 170 241 213 241 213L298 194C298 194 400 157 417 157C434 157 411 92 398 86C385 80 363 130 363 130C363 130 323 144 282 157Z" fill="#AC74CD" stroke="#8B857C"/>
<path class="owl-eyebrow-left" d="M143 153C173 168 184 209 184 209L127 190C127 190 14 153 4 153C-6 153 12 89 27 82C42 75 62 126 62 126C62 126 113 138 143 153Z" fill="#AC74CD" stroke="#8B857C"/>
<!-- nose -->
<path class="owl-beak" d="M209.778 301.125C173.778 299.393 171.846 315.88 172.008 337.136L210.008 377.136L240.778 337.125C241.889 304.463 245.778 302.857 209.778 301.125Z" fill="#FDD34A" stroke="#8B857C"/>
<!-- belly -->
<path class="belly" d="M340 411.5C340 419.576 336.637 427.574 330.104 435.035C323.571 442.497 313.995 449.276 301.924 454.987C289.852 460.698 275.521 465.228 259.749 468.319C243.977 471.409 227.072 473 210 473C192.928 473 176.023 471.409 160.251 468.319C144.479 465.228 130.148 460.698 118.076 454.987C106.004 449.276 96.4288 442.497 89.8957 435.035C83.3625 427.574 80 419.576 80 411.5L210 411.5H340Z" fill="#EFBBFF"/>
<!-- alarm -->
<g class="alarm">
<!-- alarm base -->
<rect class="alarm-base" x="181" y="62" width="73" height="11" fill="#424141"/>
<!-- outer alarm -->
<path class="outer-alarm" d="M254 62C254 53.858 253.056 45.7958 251.222 38.2736C249.387 30.7514 246.699 23.9166 243.309 18.1594C239.92 12.4022 235.896 7.83526 231.468 4.71947C227.04 1.60368 222.293 5.12773e-06 217.5 5.48363e-06C212.707 5.83952e-06 207.96 1.60368 203.532 4.71947C199.104 7.83527 195.08 12.4022 191.691 18.1594C188.301 23.9166 185.613 30.7514 183.778 38.2736C181.944 45.7958 181 53.858 181 62L217.5 62H254Z" fill="#C04A4A"/>
<!-- inner alarm -->
<path class="inner-alarm" d="M238 62C238 56.7471 237.47 51.5457 236.44 46.6927C235.409 41.8396 233.899 37.4301 231.996 33.7157C230.092 30.0014 227.832 27.055 225.345 25.0448C222.858 23.0346 220.192 22 217.5 22C214.808 22 212.142 23.0346 209.655 25.0448C207.168 27.055 204.908 30.0014 203.004 33.7157C201.101 37.4301 199.591 41.8396 198.56 46.6927C197.53 51.5457 197 56.7471 197 62L217.5 62H238Z" fill="#DF7272"/>
<!-- alarm center -->
<ellipse class="alarm-center" cx="218" cy="39" rx="4" ry="3" fill="#FDA4A4"/>
</g>
</g>
</svg>
